<?xml version="1.0" encoding="UTF-8" standalone="no"?>
<!-- Created with Inkscape (http://www.inkscape.org/) -->

<svg
   width="512"
   height="512"
   viewBox="0 0 512 512"
   version="1.1"
   id="svg1"
   inkscape:version="1.4.2 (f4327f4, 2025-05-13)"
   inkscape:export-filename="aceserv256.png"
   inkscape:export-xdpi="48"
   inkscape:export-ydpi="48"
   sodipodi:docname="iconRig.svg"
   xmlns:inkscape="http://www.inkscape.org/namespaces/inkscape"
   xmlns:sodipodi="http://sodipodi.sourceforge.net/DTD/sodipodi-0.dtd"
   xmlns="http://www.w3.org/2000/svg"
   xmlns:svg="http://www.w3.org/2000/svg">
  <sodipodi:namedview
     id="namedview1"
     pagecolor="#ffffff"
     bordercolor="#000000"
     borderopacity="0.25"
     inkscape:showpageshadow="2"
     inkscape:pageopacity="0.0"
     inkscape:pagecheckerboard="0"
     inkscape:deskcolor="#d1d1d1"
     inkscape:document-units="px"
     inkscape:zoom="1.1064453"
     inkscape:cx="240.40953"
     inkscape:cy="208.3248"
     inkscape:window-width="2560"
     inkscape:window-height="1351"
     inkscape:window-x="2551"
     inkscape:window-y="-9"
     inkscape:window-maximized="1"
     inkscape:current-layer="layer1" />
  <defs
     id="defs1">
    <rect
       x="34.344219"
       y="108.45543"
       width="459.12798"
       height="298.25243"
       id="rect7" />
    <rect
       x="23.00687"
       y="71.576927"
       width="678.70264"
       height="209.61815"
       id="rect6" />
    <rect
       x="32.536629"
       y="112.9744"
       width="474.49249"
       height="331.69284"
       id="rect5" />
    <rect
       x="59.434414"
       y="166.7998"
       width="479.94888"
       height="228.79054"
       id="rect4" />
    <rect
       x="23.64595"
       y="154.0182"
       width="474.19717"
       height="231.98595"
       id="rect3" />
    <rect
       x="45.189762"
       y="147.77052"
       width="410.32303"
       height="255.32214"
       id="rect2" />
  </defs>
  <g
     inkscape:label="Layer 1"
     inkscape:groupmode="layer"
     id="layer1">
    <rect
       style="display:none;fill:#000000;stroke:#ffffff;stroke-width:0"
       id="rect1"
       width="512"
       height="512"
       x="0"
       y="0"
       rx="64"
       ry="64" />
    <path
       d="m 33.298537,277.45473 21.838833,-5.8517 27.29854,69.12128 -23.20377,6.21743 L 44.217952,308.65205 29.203757,354.98782 6,361.20525 Z m 83.369733,-22.33886 32.75825,-8.77754 -10.91942,24.76468 -21.83883,5.85169 c -4.51336,1.20936 -8.37156,3.84467 -11.57458,7.90594 -3.20303,4.06128 -4.80455,8.3486 -4.80455,12.86196 0,4.51336 1.60152,7.94243 4.80455,10.28719 3.20302,2.34479 7.06122,2.9125 11.57458,1.70314 l 59.24318,-15.87416 -10.91941,24.76469 -48.32377,12.94831 c -10.55544,2.82833 -19.56396,1.51135 -27.02555,-3.95092 -7.4616,-5.46226 -11.1924,-13.47112 -11.1924,-24.02656 0,-10.55544 3.7308,-20.56362 11.1924,-30.02455 7.46159,-9.46093 16.47011,-15.60554 27.02555,-18.43387 z m 97.83795,-26.2156 -10.91941,24.76468 -49.13737,13.16632 v -21.83883 z m 0,27.29853 -10.91941,24.76468 -49.13737,13.16632 v -21.83883 z m 26.48494,20.20192 -10.91942,24.76469 -75.6223,20.26293 V 299.5895 Z m 5.83653,-7.0236 c -18.19902,4.87642 -27.29853,-0.94774 -27.29853,-17.47245 0,-16.23352 9.09951,-26.78849 27.29853,-31.66491 l 67.43274,-18.06855 -10.91942,24.76468 -56.51332,15.1427 c -3.6398,0.97528 -5.4597,2.30009 -5.4597,3.97439 0,1.96549 1.8199,2.46059 5.4597,1.48531 l 16.37913,-4.38877 c 18.19903,-4.87642 27.29853,0.80215 27.29853,17.03568 0,16.5247 -9.0995,27.22527 -27.29853,32.10169 l -43.67766,11.70339 10.91941,-24.76468 32.75825,-8.77755 c 3.6398,-0.97528 5.4597,-2.44567 5.4597,-4.41115 0,-1.67431 -1.8199,-2.02383 -5.4597,-1.04855 z m 137.4808,-85.97523 -10.91942,24.76468 -75.62231,20.26294 v -21.83883 z m -26.48494,34.39515 -10.91941,24.76468 -49.13738,13.16632 v -21.83883 z m 0,27.29853 -10.91941,24.76469 -49.13738,13.16632 v -21.83884 z m 6.77004,-34.57225 v -21.83883 l 38.21794,-10.24047 c 18.19903,-4.87642 27.29855,1.78488 27.29855,19.9839 0,12.22975 -4.09478,21.44372 -12.28435,27.64189 l 19.10897,19.66683 -27.29853,7.31462 -23.20375,-26.54081 v 32.75824 l -21.83883,5.8517 v -43.67765 l 38.21794,-10.24047 c 3.63981,-0.97529 5.45972,-3.28284 5.45972,-6.92265 0,-3.6398 -1.81991,-4.97206 -5.45972,-3.99677 z m 92.26905,29.87365 -27.29855,-69.12128 23.20377,-6.21743 15.01419,38.28969 15.0142,-46.33577 L 506,150.79475 478.70147,234.54527 Z"
       id="text4"
       style="font-size:96.3456px;line-height:0.75;font-family:'Space Crusaders';-inkscape-font-specification:'Space Crusaders, Normal';text-align:center;letter-spacing:0px;word-spacing:0px;text-anchor:middle;white-space:pre;display:none;fill:#ffffff;stroke:#ffffff;stroke-width:0"
       aria-label="aceserv"
       sodipodi:nodetypes="ccccccccsccsssssccssssscccccccccccccccsssccssssssccsssscccccccccccccccccsscccccccsssccccccccc" />
    <path
       d="m 20.94255,309.80379 c 0,-2.06897 1.03448,-3.38064 3.10345,-3.93502 l 24.59773,-6.59094 c 10.00001,-2.6795 14.8276,-8.80064 14.8276,-18.80065 v -0.11495 l -43.1035,11.54955 C 10.71265,294.49888 6,300.47428 6,310.12947 c 0,22.06899 0,19.08047 0,28.73566 0,9.65518 4.71265,13.10508 14.36783,10.51798 l 43.1035,-11.54955 v -0.11489 c 0,-10.00001 -4.82759,-13.53406 -14.8276,-10.85456 L 24.046,333.45505 c -2.06897,0.55438 -3.10345,-0.31786 -3.10345,-2.38683 0,-8.73565 0,-7.70116 0,-21.26439 z m 48.27583,12.12202 c 0,9.65519 4.71265,13.10509 14.36784,10.51799 l 28.73565,-7.69969 c 9.65519,-2.5871 14.36784,-8.5625 14.36784,-18.21769 v -28.73566 c 0,-9.65518 -4.71265,-13.10508 -14.36784,-10.51798 l -28.73565,7.69969 c -9.65519,2.5871 -14.36784,8.5625 -14.36784,18.21768 z m 18.04599,-5.41011 c -2.06896,0.55437 -3.10345,-0.20293 -3.10345,-2.27189 v -21.37933 c 0,-2.06897 1.03449,-3.38065 3.10345,-3.93502 l 21.2644,-5.69778 c 2.06897,-0.55438 3.2184,0.17212 3.2184,2.24109 v 21.37933 c 0,2.06896 -1.14943,3.41144 -3.2184,3.96582 z m 87.81612,-8.58771 c 10,-2.67949 14.8276,-8.80064 14.8276,-18.80066 v -28.27589 c 0,-9.65518 -4.71265,-13.10508 -14.36783,-10.51798 -9.65519,2.5871 -6.66667,1.78633 -28.73567,7.6997 -9.65518,2.5871 -14.36783,8.5625 -14.36783,18.21768 v 43.1035 l 0.11488,-0.0308 c 10.00001,-2.6795 14.82761,-8.80064 14.82761,-18.80066 v -24.59772 c 0,-2.06897 1.03448,-3.38065 3.10345,-3.93502 13.56323,-3.63426 12.52875,-3.35707 21.2644,-5.69778 2.06896,-0.55438 3.21838,0.17212 3.21838,2.24109 v 39.42533 z m 20.57465,-5.51296 c 10,-2.6795 14.94254,-8.94639 14.94254,-18.9464 v -3.21839 c 0,-2.06897 1.14943,-3.41143 3.2184,-3.96581 l 9.77013,-2.6179 c 10,-2.67949 14.8276,-8.80064 14.8276,-18.80065 v -0.11495 l -24.59773,6.59094 c -2.06897,0.55438 -3.2184,-0.28706 -3.2184,-2.35603 0,-2.06897 1.03448,-3.38063 3.10346,-3.93501 l 24.59772,-6.59094 c 10.00002,-2.6795 14.82762,-8.80064 14.82762,-18.80065 v -0.11495 l -43.10351,11.54955 c -9.65518,2.5871 -14.36783,8.5625 -14.36783,18.21768 0,9.65518 4.71265,13.10508 14.36783,10.51798 -9.65518,2.5871 -14.36783,8.5625 -14.36783,18.21768 z m 63.21837,-31.30715 c 0,9.65519 4.71265,13.10508 14.36784,10.51798 l 28.73566,-7.69969 c 9.65519,-2.5871 14.36784,-8.5625 14.36784,-18.21769 v -28.73566 c 0,-9.65518 -4.71265,-13.10508 -14.36784,-10.51798 l -28.73566,7.69969 c -9.65519,2.5871 -14.36784,8.56251 -14.36784,18.21769 z m 18.046,-5.41013 c -2.06896,0.55438 -3.10345,-0.20292 -3.10345,-2.27188 v -21.37933 c 0,-2.06897 1.03449,-3.38065 3.10345,-3.93503 l 21.2644,-5.69777 c 2.06897,-0.55438 3.21839,0.17212 3.21839,2.24109 v 21.37933 c 0,2.06896 -1.14942,3.41144 -3.21839,3.96582 z m 88.04598,-8.6493 c 9.77013,-2.61789 14.71267,-8.76983 14.59772,-18.50916 -0.11489,-9.50946 -4.82759,-12.8444 -14.36784,-10.2881 9.65519,-2.5871 14.36784,-8.5625 14.36784,-18.21768 0,-9.65518 -4.71265,-13.10508 -14.36784,-10.51798 l -43.1035,11.54955 v 0.11494 c 0,10.00002 4.8276,13.53406 14.8276,10.85456 l 24.59774,-6.59094 c 2.06896,-0.55438 3.10345,0.20291 3.10345,2.27188 0,2.06897 -1.14942,3.52638 -3.21839,4.08076 l -24.71268,6.62174 c -9.77012,2.6179 -14.59772,8.73904 -14.59772,18.50917 v 21.60922 l 0.11501,-0.0308 c 9.77012,-2.6179 14.59772,-8.73904 14.59772,-18.50917 v -3.7931 c 0,-1.95403 0.91953,-3.11995 2.87357,-3.64354 l 21.72416,-5.82097 c 2.06897,-0.55438 3.21839,-0.0578 3.21839,2.01121 v 18.39082 z m 62.87356,-16.84691 c 10.00002,-2.6795 14.94255,-8.94639 14.94255,-18.9464 v -6.89656 c 0,-9.65518 -4.71265,-13.10508 -14.36783,-10.51798 l -21.26439,5.69778 v 0.11495 c 0,10.00001 4.82759,13.53405 14.82761,10.85455 l 2.64368,-0.70837 c 2.06897,-0.55438 3.21838,0.17213 3.21838,2.24109 0,2.06897 -1.03448,3.49557 -3.10345,4.04995 l -21.37933,5.72858 c -2.06897,0.55438 -3.10345,-0.31786 -3.10345,-2.38683 v -21.26439 c 0,-2.06897 1.03448,-3.38064 3.10345,-3.93502 l 24.59773,-6.59095 c 10.00002,-2.67949 14.8276,-8.80063 14.8276,-18.80064 v -0.11495 l -43.1035,11.54955 c -9.65518,2.5871 -14.36783,8.5625 -14.36783,18.21769 v 28.73566 c 0,9.65518 4.71265,13.10508 14.36783,10.51798 z m 48.62068,-34.29227 c 10.00002,-2.67949 14.82762,-8.80065 14.82762,-18.80066 v -0.11495 l -24.59774,6.59095 c -2.06896,0.55438 -3.21839,-0.28706 -3.21839,-2.35603 0,-2.06897 1.03448,-3.38063 3.10345,-3.93501 l 24.59773,-6.59094 C 501.17241,178.02313 506,171.90199 506,161.90198 v -0.11495 l -43.1035,11.54955 c -9.65518,2.5871 -14.36783,8.5625 -14.36783,18.21768 0,9.65518 4.71265,13.10508 14.36783,10.51798 -9.65518,2.5871 -14.36783,8.5625 -14.36783,18.21768 0,9.65519 4.71265,13.10509 14.36783,10.51799 L 506,219.25836 v -0.11489 c 0,-10.00002 -4.82759,-13.53407 -14.8276,-10.85457 l -24.59773,6.59094 c -2.06897,0.55438 -3.10345,-0.31786 -3.10345,-2.38682 0,-2.06897 1.14943,-3.41143 3.21839,-3.96581 z"
       id="text1"
       style="font-size:96.3456px;line-height:0.75;font-family:'Corptic DEMO';-inkscape-font-specification:'Corptic DEMO, Normal';text-align:center;letter-spacing:0px;word-spacing:0px;text-anchor:middle;white-space:pre;display:none;fill:#ffffff;stroke-width:0"
       aria-label="conforge" />
    <path
       d="m 26.94252,304.45044 -0.1637,0.0439 C 12.87174,308.22069 6,316.9337 6,330.8408 v 33.04977 l 0.16371,-0.0439 c 13.90709,-3.72639 20.77881,-12.4394 20.77881,-26.34648 z m 0,-27.97778 -0.1637,0.0439 C 12.87174,280.2429 6,288.95593 6,302.863 v 3.92672 l 0.16371,-0.0439 c 13.90709,-3.72635 20.77881,-12.43938 20.77881,-26.34644 z m 29.45022,17.79604 c 0,-2.94503 1.47251,-4.8121 4.41754,-5.60122 l 35.01313,-9.38174 c 14.2343,-3.81407 21.10604,-12.52709 21.10604,-26.76139 v -0.1637 l -61.35478,16.43997 c -13.74347,3.68255 -20.45159,12.1881 -20.45159,25.93157 0,31.41366 0,27.15972 0,40.90319 0,13.74347 6.70812,18.65417 20.45159,14.97162 l 61.35478,-16.43997 v -0.16371 c 0,-14.2343 -6.87174,-19.26476 -21.10604,-15.45069 l -35.01313,9.38174 c -2.94503,0.78912 -4.41754,-0.45245 -4.41754,-3.39748 0,-12.43457 0,-10.96206 0,-30.26836 z m 68.71723,17.25486 c 0,13.74347 6.70813,18.65415 20.4516,14.9716 l 40.90319,-10.95998 c 13.74347,-3.68255 20.45159,-12.18811 20.45159,-25.93158 v -40.90319 c 0,-13.74347 -6.70812,-18.65416 -20.45159,-14.97161 l -40.90319,10.95998 c -13.74347,3.68255 -20.4516,12.18812 -20.4516,25.93159 z m 25.68721,-7.70094 c -2.94503,0.78912 -4.41756,-0.28883 -4.41756,-3.23386 v -30.43197 c 0,-2.94503 1.47253,-4.81211 4.41756,-5.60123 l 30.26835,-8.11038 c 2.94503,-0.78912 4.58116,0.245 4.58116,3.19003 v 30.43197 c 0,2.94502 -1.63613,4.85593 -4.58116,5.64506 z m 125.00001,-12.22399 c 14.23431,-3.81408 21.10604,-12.52709 21.10604,-26.76139 V 224.5885 c 0,-13.74347 -6.70812,-18.65416 -20.45159,-14.97161 -13.74347,3.68255 -9.48953,2.54271 -40.90319,10.95998 -13.74347,3.68255 -20.4516,12.18812 -20.4516,25.93159 v 61.35478 l 0.16371,-0.0439 c 14.23431,-3.81408 21.10604,-12.52709 21.10604,-26.76139 v -35.01311 c 0,-2.94503 1.47251,-4.81209 4.41754,-5.60122 19.30631,-5.17311 17.83379,-4.77855 30.26837,-8.11039 2.94503,-0.78912 4.58114,0.24501 4.58114,3.19004 v 56.11917 z m 90.3141,-24.19959 c 13.90708,-3.72639 20.94242,-12.48325 20.77882,-26.34649 -0.1637,-13.536 -6.87174,-18.28309 -20.45159,-14.64438 13.74347,-3.68255 20.45159,-12.18811 20.45159,-25.93158 0,-13.74347 -6.70812,-18.65416 -20.45159,-14.97161 l -61.35479,16.43996 v 0.16371 c 0,14.2343 6.87175,19.26476 21.10605,15.4507 l 35.01313,-9.38174 c 2.94503,-0.78912 4.41754,0.28883 4.41754,3.23386 0,2.94503 -1.63612,5.01956 -4.58116,5.80868 l -35.17674,9.42558 c -13.90707,3.72638 -20.77882,12.43939 -20.77882,26.34648 v 30.7592 l 0.16354,-0.0438 c 13.90707,-3.72638 20.77882,-12.43941 20.77882,-26.34648 v -5.39923 c 0,-2.78141 1.30889,-4.44104 4.09032,-5.18632 l 30.92279,-8.28574 c 2.94505,-0.78912 4.58117,-0.0822 4.58117,2.8628 v 26.17805 z m 49.9018,-67.19975 -0.16354,0.0438 c -13.90707,3.7264 -20.77882,12.43941 -20.77882,26.34649 v 33.04978 l 0.16371,-0.0439 c 13.90707,-3.72639 20.77882,-12.43941 20.77882,-26.34648 z m 0,-27.97779 -0.16354,0.0438 c -13.90707,3.7264 -20.77882,12.43943 -20.77882,26.34649 v 3.92672 l 0.16371,-0.0439 c 13.90707,-3.72638 20.77882,-12.43941 20.77882,-26.34648 z m 68.71725,63.39366 C 498.96465,231.80108 506,222.88061 506,208.6463 v -9.81675 c 0,-13.74347 -6.70812,-18.65415 -20.45159,-14.9716 l -30.26837,8.11038 v 0.16353 c 0,14.23432 6.87174,19.26478 21.10606,15.4507 l 3.76309,-1.00831 c 2.94503,-0.78912 4.58115,0.24499 4.58115,3.19004 0,2.94502 -1.47252,4.9757 -4.41754,5.76482 l -30.43197,8.15422 c -2.94503,0.78912 -4.41755,-0.45244 -4.41755,-3.39746 V 190.0175 c 0,-2.94503 1.47252,-4.8121 4.41755,-5.60122 l 35.01313,-9.38174 C 499.12826,171.22046 506,162.50743 506,148.27314 v -0.16371 l -61.35478,16.43997 c -13.74347,3.68255 -20.4516,12.18811 -20.4516,25.93158 v 40.90319 c 0,13.74347 6.70813,18.65416 20.4516,14.97161 z"
       id="text2"
       style="font-size:96.3456px;line-height:0.6;font-family:'Corptic DEMO';-inkscape-font-specification:'Corptic DEMO, Normal';text-align:center;letter-spacing:0px;word-spacing:0px;text-anchor:middle;white-space:pre;fill:#ffffff;stroke-width:0"
       aria-label="iconrig" />
  </g>
</svg>
